# xmcd
# 
# Track frame offsets:
#     225
#     1070
#     18188
#     44872
#     72787
#     96093
#     112097
#     127603
#     168351
#     181662
# 
# Disc length: 2700
# 
# Revision: 1
# Processed by: cddbd v1.5.2PL0 Copyright (c) Steve Scherf et al.
# Submitted via: BonkEnc v1.0.8
# 
DISCID=730a890a
DTITLE=New Jazz Orchestra - Western Reunion, London 1965
DYEAR=1965
DGENRE=Big Band
TTITLE0=Applause
TTITLE1=Big P
TTITLE2=Shades Of Blue
TTITLE3=So What
TTITLE4=If You Could See Me Now
TTITLE5=Tiny's Blues
TTITLE6=Milestones
TTITLE7=Django
TTITLE8=Maria
TTITLE9=Western Reunion
EXTD=YEAR: 1965
EXTT0=
EXTT1=
EXTT2=
EXTT3=
EXTT4=
EXTT5=
EXTT6=
EXTT7=
EXTT8=
EXTT9=
PLAYORDER=
